<?xml version="1.0" encoding="utf-8"?>
<!-- Generator: Adobe Illustrator 16.0.0, SVG Export Plug-In . SVG Version: 6.00 Build 0)  -->
<!DOCTYPE svg PUBLIC "-//W3C//DTD SVG 1.1//EN" "http://www.w3.org/Graphics/SVG/1.1/DTD/svg11.dtd">
<svg version="1.1" id="Layer_1" xmlns="http://www.w3.org/2000/svg" xmlns:xlink="http://www.w3.org/1999/xlink" x="0px" y="0px"
	 width="512px" height="512px" viewBox="0 0 512 512" enable-background="new 0 0 512 512" xml:space="preserve">
<g>
	<path fill-rule="evenodd" clip-rule="evenodd" fill="#9AA7AD" d="M145.001,12.247l270.99,28.968
		c18.254,1.948,31.618,18.5,29.634,36.761L403.76,470.049c-1.948,18.292-18.503,31.616-36.758,29.667L96.046,470.763
		c-18.288-1.918-31.616-18.47-29.668-36.761L108.24,41.914C110.192,23.623,126.742,10.298,145.001,12.247"/>
	<path opacity="0.25" fill-rule="evenodd" clip-rule="evenodd" fill="#272323" d="M415.991,41.215
		c18.254,1.948,31.618,18.47,29.667,36.761L403.76,470.049c-1.948,18.292-18.466,31.616-36.758,29.667L96.046,470.763
		c-10.102-1.071-18.679-6.603-24.031-14.395l284.957,30.411c38.921,4.179,36.047-42.323,36.047-42.323
		s35.129-329.154,38.605-361.588C435.097,50.42,415.991,41.215,415.991,41.215"/>
	<path fill-rule="evenodd" clip-rule="evenodd" fill="#272323" d="M135.499,328.478l26.585,2.826
		c3.65,0.431,6.309,3.688,5.918,7.376l-2.832,26.589c-0.391,3.644-3.688,6.305-7.339,5.918l-26.586-2.84
		c-3.65-0.387-6.346-3.688-5.918-7.332l2.836-26.589C128.554,330.738,131.848,328.076,135.499,328.478 M142.518,262.688
		l26.585,2.825c3.688,0.401,6.347,3.688,5.956,7.347l-2.836,26.619c-0.391,3.613-3.722,6.305-7.373,5.889l-26.585-2.84
		c-3.651-0.357-6.31-3.688-5.919-7.346l2.833-26.574C135.569,264.949,138.867,262.287,142.518,262.688z M149.395,198.238
		l26.587,2.84c3.684,0.387,6.342,3.688,5.951,7.331l-2.832,26.589c-0.391,3.658-3.688,6.35-7.34,5.918l-26.619-2.84
		c-3.65-0.386-6.309-3.673-5.922-7.332l2.837-26.589C142.447,200.513,145.745,197.821,149.395,198.238z M206.499,336.062
		l26.587,2.826c3.65,0.431,6.309,3.688,5.918,7.346l-2.836,26.62c-0.391,3.643-3.685,6.305-7.336,5.889l-26.585-2.84
		c-3.688-0.357-6.347-3.688-5.956-7.302l2.87-26.589C199.519,338.322,202.813,335.675,206.499,336.062z M213.52,270.272
		l26.585,2.826c3.651,0.402,6.31,3.688,5.919,7.346l-2.837,26.619c-0.391,3.614-3.685,6.305-7.339,5.889l-26.582-2.84
		c-3.65-0.357-6.313-3.688-5.922-7.332l2.836-26.589C206.57,272.533,209.868,269.886,213.52,270.272z M220.393,205.822l26.586,2.84
		c3.651,0.387,6.31,3.688,5.923,7.301l-2.837,26.62c-0.391,3.658-3.688,6.305-7.339,5.918l-26.586-2.826
		c-3.65-0.401-6.309-3.688-5.918-7.346l2.837-26.619C213.449,208.097,216.742,205.405,220.393,205.822z M276.118,343.497
		l26.585,2.841c3.685,0.387,6.343,3.688,5.952,7.331l-2.832,26.634c-0.391,3.614-3.688,6.305-7.376,5.874l-26.582-2.825
		c-3.654-0.357-6.313-3.688-5.923-7.316l2.837-26.619C269.17,345.772,272.467,343.11,276.118,343.497z M283.171,277.708l26.585,2.84
		c3.651,0.387,6.31,3.688,5.92,7.332l-2.838,26.589c-0.386,3.658-3.684,6.35-7.335,5.918l-26.585-2.826
		c-3.688-0.401-6.346-3.688-5.956-7.346l2.836-26.619C276.188,279.983,279.482,277.292,283.171,277.708z M290.049,213.272
		l26.585,2.84c3.651,0.342,6.31,3.673,5.919,7.302l-2.837,26.619c-0.391,3.644-3.684,6.305-7.338,5.919l-26.582-2.84
		c-3.651-0.387-6.347-3.688-5.956-7.332l2.836-26.619C283.101,215.533,286.397,212.841,290.049,213.272z M268.991,410.491
		l26.586,2.84c3.65,0.387,6.309,3.688,5.918,7.331l-2.832,26.634c-0.391,3.613-3.688,6.305-7.377,5.918l-26.581-2.84
		c-3.655-0.387-6.313-3.718-5.923-7.376l2.837-26.589C262.01,412.767,265.308,410.104,268.991,410.491z M199.339,403.056
		l26.587,2.825c3.65,0.401,6.308,3.688,5.918,7.347l-2.837,26.619c-0.39,3.658-3.684,6.305-7.335,5.918l-26.586-2.84
		c-3.651-0.387-6.346-3.718-5.956-7.332l2.871-26.589C192.357,405.316,195.688,402.669,199.339,403.056z M128.339,395.471
		l26.585,2.826c3.651,0.431,6.309,3.688,5.918,7.376l-2.833,26.589c-0.39,3.644-3.688,6.305-7.338,5.918l-26.586-2.84
		c-3.65-0.386-6.309-3.718-5.919-7.332l2.837-26.589C121.393,397.732,124.687,395.07,128.339,395.471z"/>
	<path fill-rule="evenodd" clip-rule="evenodd" fill="#272323" d="M352.822,284.727l26.586,2.841
		c3.651,0.431,6.31,3.688,5.919,7.376l-2.833,26.574c-0.391,3.688-3.688,6.32-7.339,5.934l-26.619-2.84
		c-3.65-0.387-6.309-3.688-5.922-7.346l2.837-26.575C345.842,287.002,349.139,284.37,352.822,284.727 M359.7,220.291l26.586,2.84
		c3.651,0.417,6.309,3.673,5.919,7.361l-2.838,26.589c-0.385,3.658-3.683,6.305-7.334,5.918l-26.585-2.84
		c-3.688-0.386-6.347-3.673-5.957-7.332l2.871-26.589C352.752,222.552,356.012,219.934,359.7,220.291z M371.15,427.548v0.178
		l-0.709,6.662l-0.038,0.134l-2.126,19.793c-0.354,3.673-3.651,6.305-7.335,5.948l-26.586-2.84c-3.649-0.416-6.31-3.688-5.919-7.376
		l2.127-19.778v-0.134l0.706-6.662l0.037-0.178l7.124-66.815c0.39-3.688,3.688-6.32,7.339-5.963l26.585,2.84
		c3.651,0.431,6.346,3.688,5.956,7.376L371.15,427.548z"/>
	<path fill-rule="evenodd" clip-rule="evenodd" fill="#ABADB6" d="M152.158,40.709l251.215,26.842
		c7.302,0.744,12.651,7.406,11.874,14.708l-10.351,96.766c-0.779,7.302-7.408,12.655-14.71,11.882l-251.212-26.842
		c-7.268-0.773-12.622-7.361-11.842-14.663l10.317-96.84C138.228,45.245,144.855,39.936,152.158,40.709"/>
	<polygon fill-rule="evenodd" clip-rule="evenodd" fill="#F8F7F7" points="146.559,49.572 406.986,77.366 395.785,182.073 
		135.394,154.249 	"/>
	<path fill-rule="evenodd" clip-rule="evenodd" fill="#F8F7F7" d="M146.205,195.337l26.619,2.826
		c3.651,0.357,6.31,3.688,5.919,7.302l-2.833,26.589c-0.391,3.688-3.688,6.35-7.339,5.963l-26.619-2.84
		c-3.654-0.387-6.313-3.688-5.922-7.376l2.837-26.59C139.258,197.598,142.588,194.906,146.205,195.337"/>
	<path fill-rule="evenodd" clip-rule="evenodd" fill="#F8F7F7" d="M139.328,259.774l26.585,2.84
		c3.685,0.357,6.347,3.688,5.956,7.332l-2.837,26.589c-0.391,3.659-3.722,6.35-7.372,5.918l-26.586-2.84
		c-3.65-0.387-6.309-3.688-5.918-7.361l2.832-26.589C132.379,262.049,135.677,259.357,139.328,259.774"/>
	<path fill-rule="evenodd" clip-rule="evenodd" fill="#F8F7F7" d="M132.309,325.563l26.585,2.84
		c3.651,0.387,6.347,3.688,5.919,7.331l-2.832,26.589c-0.391,3.658-3.688,6.35-7.34,5.919l-26.585-2.84
		c-3.651-0.342-6.31-3.688-5.919-7.302l2.837-26.619C125.36,327.838,128.658,325.176,132.309,325.563"/>
	<path fill-rule="evenodd" clip-rule="evenodd" fill="#F8F7F7" d="M125.148,392.557l26.586,2.84c3.65,0.387,6.345,3.688,5.955,7.332
		l-2.836,26.589c-0.391,3.658-3.722,6.35-7.373,5.918l-26.585-2.84c-3.651-0.342-6.31-3.673-5.92-7.331l2.838-26.59
		C118.199,394.832,121.498,392.141,125.148,392.557"/>
	<path fill-rule="evenodd" clip-rule="evenodd" fill="#628892" d="M217.169,202.877l26.587,2.84
		c3.649,0.386,6.342,3.718,5.951,7.346l-2.869,26.575c-0.391,3.688-3.685,6.35-7.336,5.963l-26.586-2.84
		c-3.65-0.387-6.313-3.688-5.922-7.376l2.837-26.575C210.222,205.182,213.52,202.491,217.169,202.877"/>
	<path fill-rule="evenodd" clip-rule="evenodd" fill="#F8F7F7" d="M210.292,267.328l26.585,2.87c3.651,0.357,6.31,3.688,5.919,7.302
		l-2.836,26.619c-0.387,3.659-3.685,6.306-7.336,5.919l-26.585-2.84c-3.651-0.387-6.347-3.673-5.956-7.361l2.87-26.59
		C203.344,269.633,206.642,266.941,210.292,267.328"/>
	<path fill-rule="evenodd" clip-rule="evenodd" fill="#F8F7F7" d="M203.273,333.147l26.585,2.84c3.651,0.357,6.31,3.688,5.919,7.331
		l-2.833,26.59c-0.391,3.658-3.688,6.35-7.339,5.918l-26.62-2.84c-3.649-0.342-6.312-3.673-5.921-7.331l2.836-26.589
		C196.291,335.422,199.622,332.73,203.273,333.147"/>
	<path fill-rule="evenodd" clip-rule="evenodd" fill="#F8F7F7" d="M196.112,400.141l26.586,2.84
		c3.651,0.386,6.309,3.688,5.919,7.332l-2.834,26.589c-0.39,3.659-3.688,6.35-7.338,5.918l-26.586-2.825
		c-3.65-0.357-6.346-3.688-5.956-7.346l2.837-26.589C189.13,402.416,192.461,399.725,196.112,400.141"/>
	<path fill-rule="evenodd" clip-rule="evenodd" fill="#628892" d="M287.674,210.432l26.585,2.84
		c3.651,0.357,6.343,3.688,5.956,7.302l-2.837,26.619c-0.391,3.658-3.722,6.35-7.372,5.919l-26.586-2.84
		c-3.65-0.387-6.309-3.688-5.919-7.332l2.833-26.619C280.724,212.707,284.022,210.016,287.674,210.432"/>
	<path fill-rule="evenodd" clip-rule="evenodd" fill="#F8F7F7" d="M280.796,274.883l26.585,2.825
		c3.65,0.357,6.347,3.688,5.956,7.347l-2.87,26.619c-0.391,3.614-3.688,6.306-7.339,5.889l-26.586-2.84
		c-3.65-0.356-6.309-3.688-5.918-7.346l2.836-26.575C273.847,277.143,277.145,274.451,280.796,274.883"/>
	<path fill-rule="evenodd" clip-rule="evenodd" fill="#F8F7F7" d="M273.776,340.672l26.585,2.825
		c3.651,0.402,6.31,3.688,5.923,7.376l-2.837,26.589c-0.391,3.614-3.688,6.305-7.339,5.919l-26.585-2.87
		c-3.651-0.357-6.343-3.688-5.956-7.301l2.874-26.59C266.795,342.933,270.125,340.27,273.776,340.672"/>
	<path fill-rule="evenodd" clip-rule="evenodd" fill="#F8F7F7" d="M266.615,407.666l26.586,2.826c3.65,0.401,6.31,3.688,5.923,7.376
		l-2.837,26.589c-0.391,3.613-3.688,6.305-7.339,5.918l-26.586-2.84c-3.65-0.387-6.343-3.718-5.955-7.331l2.837-26.59
		C259.671,409.926,262.965,407.264,266.615,407.666"/>
	<path fill-rule="evenodd" clip-rule="evenodd" fill="#628892" d="M356.475,217.733l26.585,2.84
		c3.651,0.431,6.308,3.718,5.923,7.376l-2.838,26.574c-0.39,3.688-3.688,6.321-7.338,5.964l-26.586-2.84
		c-3.685-0.417-6.342-3.718-5.956-7.376l2.837-26.575C349.491,220.039,352.822,217.376,356.475,217.733"/>
	<path fill-rule="evenodd" clip-rule="evenodd" fill="#628892" d="M349.599,282.214l26.587,2.841
		c3.65,0.387,6.309,3.688,5.918,7.331l-2.836,26.589c-0.391,3.688-3.722,6.35-7.373,5.948l-26.586-2.826
		c-3.65-0.431-6.309-3.688-5.918-7.376l2.837-26.589C342.614,284.519,345.912,281.827,349.599,282.214"/>
	<path fill-rule="evenodd" clip-rule="evenodd" fill="#EB7113" d="M367.924,425.035v0.133l-0.71,6.662l-0.033,0.179l-2.093,19.778
		c-0.391,3.658-3.723,6.32-7.372,5.919l-26.586-2.826c-3.65-0.401-6.31-3.688-5.919-7.376l2.09-19.749l0.037-0.179l0.709-6.662
		l0.033-0.134l7.128-66.86c0.39-3.644,3.685-6.306,7.336-5.919l26.585,2.87c3.651,0.357,6.346,3.659,5.919,7.302L367.924,425.035z"
		/>
	<path fill="#4A4646" d="M158.362,207.532c-0.603-0.104-1.134,0.059-1.632,0.386c-0.532,0.312-0.956,0.952-1.309,1.948
		c-0.461,1.234-0.889,3.405-1.208,6.454c-0.316,3.048-0.387,5.175-0.212,6.379c0.178,1.175,0.461,1.978,0.888,2.409
		c0.425,0.431,0.922,0.64,1.525,0.714c0.601,0.06,1.134-0.074,1.627-0.431c0.533-0.283,0.96-0.952,1.313-1.918
		c0.461-1.264,0.885-3.391,1.204-6.439c0.32-3.093,0.391-5.175,0.212-6.395c-0.175-1.13-0.461-1.978-0.885-2.409
		C159.463,207.814,158.965,207.562,158.362,207.532 M158.823,203.338c2.48,0.297,4.361,1.427,5.599,3.346
		c1.454,2.335,1.915,5.949,1.421,10.916c-0.532,4.893-1.773,8.357-3.722,10.35c-1.595,1.621-3.651,2.261-6.168,2.022
		c-2.517-0.253-4.432-1.457-5.777-3.583c-1.349-2.127-1.739-5.681-1.208-10.678c0.497-4.922,1.74-8.328,3.65-10.306
		C154.214,203.77,156.307,203.1,158.823,203.338z"/>
	<path fill="#4A4646" d="M295.469,292.46c0.179-1.636-0.07-2.915-0.707-3.867c-0.601-0.952-1.419-1.487-2.412-1.591
		c-0.918-0.075-1.698,0.179-2.371,0.848c-0.711,0.64-1.134,1.814-1.313,3.435c-0.178,1.666,0.034,2.944,0.603,3.792
		c0.57,0.848,1.346,1.354,2.339,1.458c0.959,0.104,1.807-0.179,2.555-0.892C294.867,294.973,295.328,293.873,295.469,292.46
		 M283.101,302.171l4.893-0.03c0,0.981,0.244,1.725,0.672,2.305c0.462,0.491,1.063,0.803,1.878,0.922
		c1.03,0.059,1.951-0.298,2.729-1.175c0.853-0.892,1.49-2.796,2.023-5.785c-1.421,1.354-3.049,1.918-4.927,1.71
		c-2.022-0.223-3.725-1.205-5.033-2.944c-1.313-1.74-1.844-3.867-1.562-6.424c0.282-2.617,1.275-4.64,3.015-6.097
		c1.736-1.413,3.825-2.052,6.238-1.77c2.621,0.283,4.714,1.561,6.168,3.762c1.487,2.201,1.947,5.666,1.454,10.351
		c-0.498,4.744-1.74,8.074-3.726,9.993c-1.985,1.918-4.395,2.766-7.194,2.453c-2.021-0.223-3.616-0.966-4.751-2.171
		C283.844,306.067,283.241,304.372,283.101,302.171z"/>
	<path fill="#4A4646" d="M218.977,282.11c-0.107,0.996,0.07,1.844,0.569,2.439c0.494,0.609,1.204,0.966,2.126,1.07
		c0.955,0.104,1.736-0.104,2.372-0.609c0.605-0.491,0.992-1.264,1.101-2.261c0.071-0.922-0.108-1.71-0.603-2.349
		c-0.498-0.595-1.204-0.952-2.127-1.056c-0.959-0.104-1.735,0.104-2.375,0.595C219.438,280.474,219.047,281.188,218.977,282.11
		 M217.312,293.204c-0.18,1.383,0.07,2.513,0.71,3.361c0.602,0.863,1.416,1.323,2.479,1.428c1.029,0.134,1.914-0.149,2.658-0.848
		c0.743-0.64,1.204-1.71,1.346-3.123c0.145-1.204-0.104-2.23-0.706-3.048c-0.603-0.818-1.421-1.279-2.484-1.428
		c-1.204-0.104-2.159,0.223-2.832,0.997C217.806,291.33,217.419,292.252,217.312,293.204z M217.382,287.032
		c-1.205-0.669-2.093-1.517-2.555-2.543c-0.494-1.041-0.673-2.097-0.564-3.227c0.212-1.919,1.063-3.48,2.55-4.61
		c1.49-1.101,3.477-1.562,5.956-1.279c2.484,0.283,4.324,1.101,5.532,2.514c1.238,1.383,1.735,3.093,1.558,5.041
		c-0.141,1.205-0.565,2.23-1.312,3.108c-0.707,0.892-1.667,1.502-2.871,1.889c1.383,0.698,2.409,1.695,3.049,2.899
		c0.602,1.175,0.852,2.483,0.71,3.971c-0.286,2.409-1.241,4.253-2.907,5.606c-1.702,1.338-3.829,1.874-6.347,1.621
		c-2.375-0.282-4.253-1.085-5.706-2.513c-1.703-1.666-2.409-3.792-2.126-6.335c0.141-1.428,0.638-2.662,1.452-3.762
		C214.616,288.282,215.82,287.493,217.382,287.032z"/>
	<path fill="#4A4646" d="M142.625,271.715l0.532-4.744l17.544,1.874l-0.424,3.732c-1.595,1.264-3.262,3.152-5.071,5.666
		c-1.77,2.514-3.224,5.205-4.324,8.12c-1.097,2.9-1.769,5.562-2.018,7.94l-4.931-0.535c0.498-3.718,1.669-7.406,3.51-11.094
		c1.844-3.688,4.148-6.945,6.845-9.71L142.625,271.715z"/>
	<path fill="#4A4646" d="M281.435,365.759c-0.178,1.636,0.071,2.915,0.71,3.867c0.636,0.952,1.45,1.486,2.41,1.591
		c0.921,0.074,1.702-0.178,2.408-0.848c0.674-0.64,1.101-1.77,1.274-3.436c0.18-1.665,0-2.944-0.563-3.792
		c-0.604-0.892-1.384-1.353-2.339-1.457c-0.993-0.104-1.811,0.179-2.555,0.892C282.037,363.216,281.576,364.272,281.435,365.759
		 M293.841,356.123h-4.855c-0.037-0.996-0.249-1.74-0.711-2.275c-0.423-0.521-1.063-0.803-1.843-0.922
		c-1.026-0.059-1.985,0.283-2.8,1.145c-0.814,0.848-1.487,2.766-1.985,5.741c1.383-1.354,2.979-1.918,4.822-1.71
		c2.089,0.223,3.754,1.205,5.067,2.944c1.312,1.74,1.844,3.867,1.562,6.35c-0.287,2.662-1.279,4.714-3.016,6.171
		c-1.736,1.413-3.792,2.008-6.238,1.77c-2.62-0.283-4.644-1.562-6.131-3.763c-1.453-2.23-1.951-5.636-1.453-10.276
		c0.531-4.759,1.773-8.09,3.754-9.993c1.953-1.948,4.361-2.766,7.16-2.454c1.953,0.223,3.548,0.966,4.719,2.171
		C293.061,352.286,293.699,353.996,293.841,356.123z"/>
	<path fill="#4A4646" d="M205.436,359.662h5.105c0.033,1.145,0.354,2.126,0.992,2.84c0.636,0.773,1.417,1.175,2.339,1.279
		c1.063,0.134,2.022-0.223,2.837-0.997c0.813-0.773,1.313-2.052,1.486-3.792c0.18-1.665-0.033-2.87-0.673-3.792
		c-0.639-0.922-1.558-1.413-2.729-1.532c-1.454-0.179-2.836,0.327-4.112,1.502l-4.003-1.041l4.036-13.399l13.366,1.427l-0.495,4.714
		l-9.573-1.026l-1.241,4.387c1.171-0.417,2.342-0.565,3.547-0.461c2.234,0.253,4.041,1.249,5.424,3.093
		c1.384,1.77,1.948,3.97,1.666,6.588c-0.212,2.201-1.063,4.044-2.518,5.636c-1.951,2.156-4.465,3.048-7.514,2.721
		c-2.445-0.282-4.36-1.13-5.743-2.588C206.251,363.736,205.508,361.893,205.436,359.662"/>
	<path fill="#4A4646" d="M144.395,350.591l0.96-9.071l-7.02,8.432L144.395,350.591z M143.331,360.376l0.603-5.354l-10.812-1.174
		l0.462-4.387l13.258-15.629l4.253,0.461l-1.771,16.833l3.294,0.313l-0.493,4.476l-3.298-0.357l-0.566,5.309L143.331,360.376z"/>
	<path fill="#4A4646" d="M268.53,434.032l4.893-0.074c0,1.279,0.32,2.275,0.923,2.989c0.602,0.699,1.382,1.13,2.338,1.234
		c0.992,0.104,1.914-0.178,2.695-0.922c0.781-0.669,1.241-1.695,1.383-3.019c0.142-1.264-0.071-2.334-0.673-3.107
		c-0.606-0.789-1.383-1.279-2.343-1.354c-0.635-0.074-1.416-0.029-2.305,0.149l0.959-4.015c1.346,0.179,2.409,0,3.189-0.535
		c0.744-0.565,1.206-1.338,1.313-2.409c0.104-0.848-0.107-1.547-0.569-2.156c-0.461-0.61-1.134-0.922-1.985-1.026
		c-0.848-0.075-1.595,0.133-2.268,0.669c-0.673,0.535-1.134,1.383-1.382,2.483l-4.504-1.279c0.499-1.517,1.102-2.766,1.881-3.644
		c0.744-0.862,1.7-1.487,2.908-1.918c1.204-0.431,2.551-0.565,3.967-0.431c2.446,0.283,4.327,1.279,5.637,2.989
		c1.063,1.413,1.524,2.929,1.349,4.536c-0.249,2.305-1.665,4-4.323,5.101c1.45,0.49,2.551,1.309,3.33,2.513
		c0.782,1.205,1.063,2.588,0.923,4.179c-0.249,2.275-1.278,4.149-3.119,5.577c-1.844,1.413-4.008,2.022-6.487,1.77
		c-2.339-0.283-4.221-1.13-5.603-2.692C269.24,438.151,268.53,436.233,268.53,434.032"/>
	<path fill="#4A4646" d="M215.68,430.909l-0.495,4.684l-17.651-1.918c0.389-1.74,1.133-3.331,2.268-4.818
		c1.133-1.487,3.26-3.405,6.346-5.71c2.479-1.874,4.005-3.153,4.605-3.852c0.815-0.966,1.276-1.962,1.384-2.989
		c0.104-1.13-0.107-2.022-0.64-2.692c-0.531-0.639-1.345-1.055-2.375-1.13c-1.063-0.149-1.911,0.075-2.622,0.639
		c-0.673,0.565-1.134,1.591-1.382,3.049l-4.997-1.026c0.603-2.736,1.736-4.654,3.472-5.681c1.703-1.026,3.722-1.442,6.098-1.16
		c2.588,0.283,4.536,1.204,5.886,2.766c1.309,1.546,1.877,3.36,1.628,5.457c-0.104,1.161-0.424,2.261-0.955,3.287
		c-0.568,1.026-1.347,2.097-2.376,3.152c-0.71,0.714-1.914,1.71-3.688,3.019c-1.737,1.279-2.833,2.157-3.332,2.588
		c-0.461,0.431-0.851,0.848-1.167,1.279L215.68,430.909z"/>
	<path fill="#4A4646" d="M138.867,427.162l-4.997-0.506l2.02-18.856c-1.986,1.532-4.291,2.558-6.841,3.123l0.494-4.536
		c1.349-0.283,2.836-0.922,4.469-1.993c1.665-0.981,2.869-2.26,3.579-3.821l4.075,0.431L138.867,427.162z"/>
	<polygon fill="#F8F7F7" points="223.586,237.155 224.649,227.31 214.653,226.21 215.363,219.444 225.356,220.5 226.42,210.581 
		233.086,211.28 232.022,221.213 242.016,222.269 241.309,229.08 231.313,228.009 230.249,237.869 	"/>
	<polygon fill="#F8F7F7" points="348.25,309.368 355.979,303.093 349.671,295.301 354.986,290.973 361.295,298.839 369.059,292.564 
		373.24,297.769 365.516,304.015 371.824,311.852 366.508,316.135 360.198,308.342 352.433,314.573 	"/>
	<polygon fill="#F8F7F7" points="287.602,233.72 288.237,227.444 310.076,229.794 309.437,236.024 	"/>
	<path fill="#F8F7F7" d="M354.488,240.635l0.606-5.606l25.663,2.707l-0.605,5.665L354.488,240.635z M365.017,234.106l0.603-5.636
		l6.205,0.684l-0.568,5.592L365.017,234.106z M363.422,249.111l0.604-5.636l6.204,0.669l-0.603,5.636L363.422,249.111z"/>
	<path fill="#F8F7F7" d="M336.305,410.848l0.603-5.666l25.664,2.767l-0.603,5.591L336.305,410.848z M337.725,397.776l0.604-5.636
		l25.625,2.766l-0.602,5.592L337.725,397.776z"/>
	<path opacity="0.1" fill-rule="evenodd" clip-rule="evenodd" fill="#272323" d="M406.986,77.366c0,0-34.88,95.918-271.593,76.883
		l260.392,27.824L406.986,77.366z"/>
	<path fill="#395A7C" d="M402.945,71.418L151.771,44.621c-2.588-0.283-5.071,0.52-6.949,2.052c-1.878,1.487-3.189,3.747-3.476,6.305
		l-10.313,96.632v0.208c-0.282,2.558,0.531,5.041,2.019,6.915c1.491,1.814,3.651,3.123,6.135,3.436h0.212L390.61,187.04
		c2.554,0.252,5.033-0.565,6.911-2.052l0,0c1.881-1.532,3.228-3.792,3.476-6.35l10.313-96.587l0.037-0.223
		c0.282-2.587-0.532-5.026-2.056-6.945c-1.491-1.844-3.651-3.123-6.135-3.405L402.945,71.418z M152.585,36.813l250.893,26.797
		l0.319,0.074l0,0h0.282c4.573,0.565,8.581,2.945,11.31,6.306c2.691,3.376,4.182,7.733,3.755,12.343l-0.033,0.283v0.029v0.282
		l-10.316,96.528c-0.495,4.684-2.908,8.789-6.343,11.584c-3.406,2.766-7.941,4.253-12.655,3.763l-250.929-26.828h-0.283h-0.037
		l-0.249-0.044c-4.606-0.565-8.577-2.944-11.306-6.306c-2.695-3.375-4.183-7.733-3.792-12.298l0.033-0.357l0,0l0.037-0.282
		l10.313-96.527c0.498-4.714,2.906-8.819,6.346-11.585C143.331,37.81,147.871,36.322,152.585,36.813z"/>
	<path fill="#395A7C" d="M366.611,503.583h-0.033h-0.285 M407.659,470.466L407.659,470.466l-0.033,0.297 M415.563,45.111
		L144.611,16.157c-8.05-0.862-15.775,1.666-21.661,6.41c-5.848,4.714-9.959,11.703-10.811,19.778L70.278,434.418
		c-0.889,8.045,1.628,15.778,6.379,21.667c4.752,5.874,11.767,9.963,19.815,10.812l270.741,28.879l0.216,0.045
		c8.045,0.847,15.737-1.666,21.623-6.425c5.848-4.669,9.889-11.584,10.811-19.556v-0.223l41.896-392.073
		c0.852-8.045-1.665-15.778-6.413-21.652C430.631,50.033,423.612,45.959,415.563,45.111z M145.425,8.395l270.956,28.924
		c10.21,1.056,19.035,6.231,25.062,13.681c5.989,7.436,9.179,17.146,8.078,27.363l-41.824,391.82l-0.07,0.58
		c-1.171,10.053-6.31,18.782-13.685,24.73c-7.336,5.963-16.941,9.146-27.044,8.164l-0.604-0.075L95.621,474.66
		c-10.171-1.071-19.034-6.246-25.061-13.682c-5.989-7.45-9.179-17.19-8.082-27.377l41.898-392.103
		c1.063-10.216,6.238-19.005,13.682-25.028C125.505,10.477,135.216,7.25,145.425,8.395z"/>
	
		<path fill="none" stroke="#395A7C" stroke-width="0.216" stroke-linecap="round" stroke-linejoin="round" stroke-miterlimit="22.9256" d="
		M426.836,127.705c-0.706,6.513-1.168,10.916-1.168,10.916 M422.902,57.379c0,0,10.919,4.61,8.896,23.809
		c-0.743,6.885-1.736,16.239-2.729,25.385"/>
	
		<path fill="none" stroke="#395A7C" stroke-width="0.216" stroke-linecap="round" stroke-linejoin="round" stroke-miterlimit="22.9256" d="
		M390.93,462.956c0,0-1.453,16.447-17.652,22.083 M394.012,435.162l-0.919,8.164"/>
	<g>
		<path fill="#4A4646" d="M303.031,158.611l-9.062-1.107l4.173-34.149c-3.689,2.691-7.871,4.504-12.545,5.438l1.004-8.224
			c2.459-0.485,5.208-1.638,8.245-3.46c3.038-1.821,5.248-4.108,6.633-6.864l7.353,0.898L303.031,158.611z"/>
		<path fill="#4A4646" d="M337.692,114.67c4.578,0.56,7.958,2.632,10.138,6.214c2.602,4.246,3.354,10.85,2.259,19.815
			c-1.093,8.943-3.425,15.182-6.999,18.716c-2.952,2.913-6.719,4.088-11.297,3.529c-4.602-0.563-8.094-2.784-10.477-6.664
			c-2.386-3.881-3.022-10.357-1.914-19.43c1.088-8.899,3.419-15.117,6.992-18.651C329.347,115.287,333.113,114.111,337.692,114.67z
			 M336.773,122.184c-1.096-0.134-2.117,0.096-3.063,0.689c-0.945,0.594-1.766,1.764-2.458,3.513
			c-0.911,2.267-1.704,6.173-2.382,11.72c-0.678,5.546-0.864,9.391-0.559,11.534s0.841,3.61,1.605,4.401
			c0.766,0.792,1.697,1.255,2.793,1.389c1.097,0.134,2.117-0.096,3.063-0.689s1.764-1.764,2.458-3.513
			c0.907-2.245,1.699-6.142,2.377-11.688c0.678-5.547,0.865-9.391,0.56-11.534c-0.307-2.143-0.841-3.615-1.604-4.418
			C338.8,122.787,337.87,122.318,336.773,122.184z"/>
		<path fill="#4A4646" d="M374.422,119.159c4.578,0.56,7.957,2.632,10.138,6.214c2.601,4.246,3.354,10.85,2.259,19.815
			c-1.093,8.943-3.426,15.182-7,18.716c-2.952,2.913-6.718,4.088-11.296,3.529c-4.602-0.562-8.094-2.784-10.478-6.664
			c-2.385-3.88-3.022-10.356-1.914-19.43c1.088-8.899,3.42-15.117,6.992-18.651C366.076,119.776,369.842,118.599,374.422,119.159z
			 M373.503,126.672c-1.097-0.134-2.118,0.096-3.063,0.69c-0.945,0.593-1.766,1.764-2.458,3.512
			c-0.91,2.267-1.704,6.173-2.382,11.72c-0.678,5.546-0.864,9.391-0.558,11.534c0.306,2.143,0.84,3.61,1.605,4.401
			c0.765,0.792,1.696,1.255,2.793,1.389c1.096,0.134,2.117-0.096,3.062-0.689c0.946-0.594,1.765-1.764,2.458-3.513
			c0.907-2.245,1.7-6.141,2.378-11.688c0.678-5.547,0.864-9.391,0.559-11.534c-0.307-2.143-0.84-3.615-1.604-4.418
			C375.529,127.275,374.599,126.807,373.503,126.672z"/>
	</g>
</g>
</svg>
